<?xml version="1.0" encoding="utf-8"?>
<!-- Generator: Adobe Illustrator 27.5.0, SVG Export Plug-In . SVG Version: 6.00 Build 0)  -->
<svg version="1.1" id="Layer_1" xmlns="http://www.w3.org/2000/svg" xmlns:xlink="http://www.w3.org/1999/xlink" x="0px" y="0px"
	 viewBox="0 0 32 32" style="enable-background:new 0 0 32 32;" xml:space="preserve">
<style type="text/css">
	.st0{fill:#FFC25A;}
	.st1{fill:#FFFFFF;}
</style>
<path class="st0" d="M16,2c-2.9,0-5.7,1.2-7.8,3.2C6.2,7.3,5,10.1,5,13c0,9.4,10,16.5,10.4,16.8c0.2,0.1,0.4,0.2,0.6,0.2
	s0.4-0.1,0.6-0.2C17,29.5,27,22.4,27,13c0-2.9-1.2-5.7-3.2-7.8S18.9,2,16,2z"/>
<path class="st1" d="M14.9,16.4l5.8-5.8c0.2-0.2,0.1-0.4,0-0.5l-1.1-1.1c-0.2-0.1-0.4-0.1-0.5,0L14.9,13c-0.2,0.2-0.4,0.2-0.5,0
	l-1.5-1.5c-0.2-0.1-0.4-0.1-0.5,0l-1.1,1.1c-0.1,0.1-0.2,0.4,0,0.5l3.2,3.2C14.6,16.5,14.8,16.5,14.9,16.4z M16,19.4
	c-0.9,0-1.8-0.2-2.7-0.5c-0.8-0.4-1.6-0.9-2.2-1.5s-1.1-1.4-1.5-2.2c-0.4-0.8-0.5-1.7-0.5-2.7c0-0.9,0.2-1.8,0.5-2.7
	s0.9-1.6,1.5-2.2s1.4-1.1,2.2-1.5c0.8-0.4,1.7-0.5,2.7-0.5c0.9,0,1.8,0.2,2.7,0.5c0.8,0.4,1.6,0.8,2.2,1.5s1.1,1.3,1.5,2.2
	s0.5,1.7,0.5,2.7c0,0.9-0.2,1.8-0.5,2.7c-0.4,0.8-0.8,1.6-1.5,2.2s-1.3,1.1-2.2,1.5C17.8,19.3,16.9,19.4,16,19.4z"/>
</svg>
