<?xml version="1.0" encoding="utf-8"?>
<!-- Generator: Adobe Illustrator 27.5.0, SVG Export Plug-In . SVG Version: 6.00 Build 0)  -->
<svg version="1.1" id="Layer_1" xmlns="http://www.w3.org/2000/svg" xmlns:xlink="http://www.w3.org/1999/xlink"
	 x="0px" y="0px" viewBox="0 0 32 32" style="enable-background:new 0 0 32 32;" xml:space="preserve">
<style type="text/css">
	.st0{fill:#FFFFFF;}
	.st1{fill:#FFC25A;}
</style>
<rect x="9.8" y="7.1" class="st0" width="12.3" height="12.3"/>
<path class="st1" d="M16,2c-2.9,0-5.7,1.2-7.8,3.2C6.2,7.3,5,10.1,5,13c0,9.4,10,16.5,10.4,16.8c0.2,0.1,0.4,0.2,0.6,0.2
	s0.4-0.1,0.6-0.2C17,29.5,27,22.4,27,13c0-2.9-1.2-5.7-3.2-7.8S18.9,2,16,2z M16,9c0.8,0,1.6,0.2,2.2,0.7c0.7,0.4,1.2,1.1,1.5,1.8
	s0.4,1.5,0.2,2.3c-0.2,0.8-0.5,1.5-1.1,2c-0.6,0.5-1.3,0.9-2,1.1c-0.8,0.2-1.6,0.1-2.3-0.2c-0.7-0.3-1.4-0.8-1.8-1.5
	C12.2,14.6,12,13.8,12,13c0-1.1,0.4-2.1,1.2-2.8C13.9,9.4,14.9,9,16,9z"/>
</svg>
