<?xml version="1.0" encoding="utf-8"?>
<!-- Generator: Adobe Illustrator 27.5.0, SVG Export Plug-In . SVG Version: 6.00 Build 0)  -->
<svg version="1.1" id="Layer_1" xmlns="http://www.w3.org/2000/svg" xmlns:xlink="http://www.w3.org/1999/xlink" x="0px" y="0px"
	 viewBox="0 0 32 32" style="enable-background:new 0 0 32 32;" xml:space="preserve">
<style type="text/css">
	.st0{fill:#EB2323;}
	.st1{fill:#FFFFFF;}
</style>
<path class="st0" d="M16,2c-2.9,0-5.7,1.2-7.8,3.2C6.2,7.3,5,10.1,5,13c0,9.4,10,16.5,10.4,16.8c0.2,0.1,0.4,0.2,0.6,0.2
	s0.4-0.1,0.6-0.2C17,29.5,27,22.4,27,13c0-2.9-1.2-5.7-3.2-7.8S18.9,2,16,2z"/>
<path class="st1" d="M10.3,17.7c-0.1,0-0.3,0-0.4-0.1s-0.1-0.2-0.1-0.4v-5.6l1.5-4.4c0.1-0.2,0.2-0.3,0.3-0.4s0.3-0.1,0.5-0.1h8
	c0.2,0,0.3,0,0.5,0.1s0.2,0.2,0.3,0.4l1.5,4.4v5.6c0,0.1,0,0.3-0.1,0.4s-0.2,0.1-0.4,0.1h-0.4c-0.1,0-0.3,0-0.4-0.1
	s-0.1-0.2-0.1-0.4v-0.9h-9.6v0.9c0,0.1,0,0.3-0.1,0.4s-0.2,0.1-0.4,0.1H10.3z M11.3,10.6h9.5l-0.9-2.8h-7.6L11.3,10.6z M12.7,14.4
	c0.3,0,0.5-0.1,0.7-0.3c0.2-0.2,0.3-0.4,0.3-0.7c0-0.3-0.1-0.5-0.3-0.7c-0.2-0.2-0.4-0.3-0.7-0.3c-0.3,0-0.5,0.1-0.7,0.3
	c-0.2,0.2-0.3,0.4-0.3,0.7c0,0.3,0.1,0.5,0.3,0.7C12.2,14.3,12.4,14.4,12.7,14.4z M19.3,14.4c0.3,0,0.5-0.1,0.7-0.3
	c0.2-0.2,0.3-0.4,0.3-0.7c0-0.3-0.1-0.5-0.3-0.7c-0.2-0.2-0.4-0.3-0.7-0.3c-0.3,0-0.5,0.1-0.7,0.3c-0.2,0.2-0.3,0.4-0.3,0.7
	c0,0.3,0.1,0.5,0.3,0.7S19.1,14.4,19.3,14.4z"/>
</svg>
